<mxfile host="Electron" agent="Mozilla/5.0 (Macintosh; Intel Mac OS X 10_15_7) AppleWebKit/537.36 (KHTML, like Gecko) draw.io/28.0.6 Chrome/138.0.7204.100 Electron/37.2.3 Safari/537.36" version="28.0.6">
  <diagram name="Página-1" id="g8iYQ3v45XBnmqqe59ZT">
    <mxGraphModel dx="796" dy="619" grid="1" gridSize="10" guides="1" tooltips="1" connect="1" arrows="1" fold="1" page="1" pageScale="1" pageWidth="850" pageHeight="1100" math="0" shadow="0">
      <root>
        <mxCell id="0" />
        <mxCell id="1" parent="0" />
        <mxCell id="9vAylAvGdehRSpNqVZPn-27" value="&lt;div&gt;&amp;nbsp;Amazon SNS - Notificación&lt;/div&gt;&lt;div&gt;&amp;nbsp;(correo: alerta@acme.com)&lt;/div&gt;" style="sketch=0;points=[[0,0,0],[0.25,0,0],[0.5,0,0],[0.75,0,0],[1,0,0],[0,1,0],[0.25,1,0],[0.5,1,0],[0.75,1,0],[1,1,0],[0,0.25,0],[0,0.5,0],[0,0.75,0],[1,0.25,0],[1,0.5,0],[1,0.75,0]];outlineConnect=0;fontColor=#232F3E;fillColor=#E7157B;strokeColor=#ffffff;dashed=0;verticalLabelPosition=bottom;verticalAlign=top;align=center;html=1;fontSize=12;fontStyle=0;aspect=fixed;shape=mxgraph.aws4.resourceIcon;resIcon=mxgraph.aws4.sns;rounded=1;" vertex="1" parent="1">
          <mxGeometry x="400" y="420" width="78" height="78" as="geometry" />
        </mxCell>
        <mxCell id="9vAylAvGdehRSpNqVZPn-28" value="" style="endArrow=block;html=1;rounded=0;fillColor=#dae8fc;strokeColor=#6c8ebf;endFill=1;endSize=3;entryX=0;entryY=0.5;entryDx=0;entryDy=0;entryPerimeter=0;strokeWidth=2;exitX=0.99;exitY=0.583;exitDx=0;exitDy=0;exitPerimeter=0;" edge="1" parent="1" source="9vAylAvGdehRSpNqVZPn-30" target="9vAylAvGdehRSpNqVZPn-27">
          <mxGeometry width="50" height="50" relative="1" as="geometry">
            <mxPoint x="303" y="513" as="sourcePoint" />
            <mxPoint x="394" y="580" as="targetPoint" />
          </mxGeometry>
        </mxCell>
        <mxCell id="9vAylAvGdehRSpNqVZPn-29" value="CloudWatch" style="sketch=0;points=[[0,0,0],[0.25,0,0],[0.5,0,0],[0.75,0,0],[1,0,0],[0,1,0],[0.25,1,0],[0.5,1,0],[0.75,1,0],[1,1,0],[0,0.25,0],[0,0.5,0],[0,0.75,0],[1,0.25,0],[1,0.5,0],[1,0.75,0]];points=[[0,0,0],[0.25,0,0],[0.5,0,0],[0.75,0,0],[1,0,0],[0,1,0],[0.25,1,0],[0.5,1,0],[0.75,1,0],[1,1,0],[0,0.25,0],[0,0.5,0],[0,0.75,0],[1,0.25,0],[1,0.5,0],[1,0.75,0]];outlineConnect=0;fontColor=#232F3E;fillColor=#E7157B;strokeColor=#ffffff;dashed=0;verticalLabelPosition=top;verticalAlign=bottom;align=center;html=1;fontSize=12;fontStyle=0;aspect=fixed;shape=mxgraph.aws4.resourceIcon;resIcon=mxgraph.aws4.cloudwatch_2;rounded=1;labelPosition=center;" vertex="1" parent="1">
          <mxGeometry x="245" y="260" width="78" height="78" as="geometry" />
        </mxCell>
        <mxCell id="9vAylAvGdehRSpNqVZPn-30" value="Alarmas" style="sketch=0;outlineConnect=0;fontColor=#232F3E;gradientColor=none;fillColor=#E7157B;strokeColor=none;dashed=0;verticalLabelPosition=bottom;verticalAlign=top;align=center;html=1;fontSize=12;fontStyle=0;aspect=fixed;pointerEvents=1;shape=mxgraph.aws4.alarm;rounded=1;" vertex="1" parent="1">
          <mxGeometry x="247" y="413" width="78" height="78" as="geometry" />
        </mxCell>
        <object label="" NetIn="NetIn" id="9vAylAvGdehRSpNqVZPn-35">
          <mxCell style="endArrow=block;html=1;rounded=0;fillColor=#dae8fc;strokeColor=#6c8ebf;endFill=1;endSize=3;textShadow=1;strokeWidth=2;labelPosition=right;verticalLabelPosition=middle;align=left;verticalAlign=middle;entryX=0.476;entryY=0.026;entryDx=0;entryDy=0;entryPerimeter=0;exitX=0.5;exitY=1;exitDx=0;exitDy=0;exitPerimeter=0;" edge="1" parent="1" source="9vAylAvGdehRSpNqVZPn-29" target="9vAylAvGdehRSpNqVZPn-30">
            <mxGeometry width="50" height="50" relative="1" as="geometry">
              <mxPoint x="280" y="350" as="sourcePoint" />
              <mxPoint x="283" y="410" as="targetPoint" />
            </mxGeometry>
          </mxCell>
        </object>
        <mxCell id="9vAylAvGdehRSpNqVZPn-39" value="&lt;span style=&quot;&quot;&gt;CPU &amp;gt; 70&lt;/span&gt;&lt;div&gt;&lt;span style=&quot;&quot;&gt;NetIn↓&lt;/span&gt;&lt;/div&gt;&lt;div&gt;&lt;span style=&quot;&quot;&gt;EC2Fail&lt;/span&gt;&lt;/div&gt;" style="edgeLabel;html=1;align=left;verticalAlign=middle;resizable=0;points=[];rounded=1;labelBackgroundColor=none;labelPosition=right;verticalLabelPosition=middle;" vertex="1" connectable="0" parent="9vAylAvGdehRSpNqVZPn-35">
          <mxGeometry x="0.7732" relative="1" as="geometry">
            <mxPoint x="7" y="-32" as="offset" />
          </mxGeometry>
        </mxCell>
      </root>
    </mxGraphModel>
  </diagram>
</mxfile>
